<svg xmlns="http://www.w3.org/2000/svg" viewBox="0 0 880 524" width="100%" role="img">
<title>Operations Dashboard Wireframe — Evolvée Radiance</title>
<desc>Greyscale wireframe of the Operations Hub Dashboard showing all 6 V1 module tiles: Orders (Shopify), Inventory (Zoho Inventory), Financials (Zoho Books), Top Customers (Zoho CRM), Shipments (AfterShip), and Email (Klaviyo).</desc>
<rect x="0" y="0" width="880" height="524" rx="0" fill="#F2EFE8" stroke="none"/>
<rect x="0" y="0" width="880" height="44" rx="0" fill="#2C2C2A" stroke="none"/>
<text x="24" y="22" font-family="sans-serif" font-size="13" fill="#FFFFFF" font-weight="500" dominant-baseline="central">Evolvée Radiance</text>
<text x="200" y="22" font-family="sans-serif" font-size="11" fill="#FFFFFF" dominant-baseline="central">Dashboard</text>
<text x="295" y="22" font-family="sans-serif" font-size="11" fill="rgba(255,255,255,0.5)" dominant-baseline="central">Manufacturers</text>
<text x="405" y="22" font-family="sans-serif" font-size="11" fill="rgba(255,255,255,0.5)" dominant-baseline="central">Orders</text>
<text x="480" y="22" font-family="sans-serif" font-size="11" fill="rgba(255,255,255,0.5)" dominant-baseline="central">Inventory</text>
<text x="562" y="22" font-family="sans-serif" font-size="11" fill="rgba(255,255,255,0.5)" dominant-baseline="central">Financials</text>
<circle cx="852" cy="22" r="13" fill="#3C3489" opacity="0.85"/>
<text x="852" y="22" font-family="sans-serif" font-size="10" fill="#FFFFFF" font-weight="500" text-anchor="middle" dominant-baseline="central">SM</text>
<rect x="0" y="44" width="880" height="36" rx="0" fill="#F2EFE8" stroke="none"/>
<text x="24" y="62" font-family="sans-serif" font-size="17" fill="#2C2C2A" font-weight="500" dominant-baseline="central">Dashboard</text>
<text x="856" y="62" font-family="sans-serif" font-size="11" fill="#888780" text-anchor="end" dominant-baseline="central">Last synced: Jun 10, 2026 · 09:42  ↻</text>
<rect x="0" y="80" width="880" height="444" rx="0" fill="#F2EFE8" stroke="none"/>
<rect x="20" y="88" width="270" height="190" rx="6" fill="#FFFFFF" stroke="#D3D1C7" stroke-width="0.75"/>
<rect x="21" y="89" width="268" height="26" rx="5" fill="#F8F7F4" stroke="none"/>
<text x="30" y="102" font-family="sans-serif" font-size="10" fill="#888780" dominant-baseline="central">ORDERS  ·  Shopify</text>
<line x1="20" y1="115" x2="290" y2="115" stroke="#ECEAE4" stroke-width="0.5"/>
<text x="32" y="138" font-family="sans-serif" font-size="22" fill="#2C2C2A" font-weight="500">$12,480</text>
<text x="32" y="160" font-family="sans-serif" font-size="11" fill="#888780">Revenue today</text>
<line x1="32" y1="172" x2="278" y2="172" stroke="#ECEAE4" stroke-width="0.5"/>
<rect x="32" y="182" width="160" height="10" rx="2" fill="#E8E5DE" stroke="none"/>
<rect x="232" y="182" width="46" height="10" rx="2" fill="#D3D1C7" stroke="none"/>
<rect x="32" y="210" width="140" height="10" rx="2" fill="#E8E5DE" stroke="none"/>
<rect x="226" y="210" width="52" height="10" rx="2" fill="#D3D1C7" stroke="none"/>
<rect x="32" y="238" width="155" height="10" rx="2" fill="#E8E5DE" stroke="none"/>
<rect x="240" y="238" width="38" height="10" rx="2" fill="#D3D1C7" stroke="none"/>
<rect x="214" y="252" width="78" height="18" rx="9" fill="#E8E5DE" stroke="#D3D1C7" stroke-width="0.5"/>
<text x="253" y="261" font-family="sans-serif" font-size="10" fill="#888780" text-anchor="middle" dominant-baseline="central">84 orders</text>
<rect x="304" y="88" width="270" height="190" rx="6" fill="#FFFFFF" stroke="#D3D1C7" stroke-width="0.75"/>
<rect x="305" y="89" width="268" height="26" rx="5" fill="#F8F7F4" stroke="none"/>
<text x="314" y="102" font-family="sans-serif" font-size="10" fill="#888780" dominant-baseline="central">INVENTORY  ·  Zoho Inventory</text>
<line x1="304" y1="115" x2="574" y2="115" stroke="#ECEAE4" stroke-width="0.5"/>
<text x="316" y="138" font-family="sans-serif" font-size="22" fill="#2C2C2A" font-weight="500">148 SKUs</text>
<text x="316" y="160" font-family="sans-serif" font-size="11" fill="#888780">Products tracked</text>
<line x1="316" y1="172" x2="562" y2="172" stroke="#ECEAE4" stroke-width="0.5"/>
<circle cx="322" cy="187" r="4" fill="#1D9E75"/>
<rect x="334" y="182" width="148" height="10" rx="2" fill="#E8E5DE" stroke="none"/>
<rect x="526" y="182" width="36" height="10" rx="2" fill="#D3D1C7" stroke="none"/>
<circle cx="322" cy="215" r="4" fill="#BA7517"/>
<rect x="334" y="210" width="130" height="10" rx="2" fill="#E8E5DE" stroke="none"/>
<rect x="520" y="210" width="42" height="10" rx="2" fill="#D3D1C7" stroke="none"/>
<circle cx="322" cy="243" r="4" fill="#A32D2D"/>
<rect x="334" y="238" width="118" height="10" rx="2" fill="#E8E5DE" stroke="none"/>
<rect x="520" y="238" width="42" height="10" rx="2" fill="#D3D1C7" stroke="none"/>
<rect x="486" y="252" width="102" height="18" rx="9" fill="#FFF3E0" stroke="#D3D1C7" stroke-width="0.5"/>
<text x="537" y="261" font-family="sans-serif" font-size="10" fill="#BA7517" text-anchor="middle" dominant-baseline="central">⚠ 6 low stock</text>
<rect x="588" y="88" width="270" height="190" rx="6" fill="#FFFFFF" stroke="#D3D1C7" stroke-width="0.75"/>
<rect x="589" y="89" width="268" height="26" rx="5" fill="#F8F7F4" stroke="none"/>
<text x="598" y="102" font-family="sans-serif" font-size="10" fill="#888780" dominant-baseline="central">FINANCIALS  ·  Zoho Books</text>
<line x1="588" y1="115" x2="858" y2="115" stroke="#ECEAE4" stroke-width="0.5"/>
<text x="600" y="138" font-family="sans-serif" font-size="22" fill="#2C2C2A" font-weight="500">$48.2K</text>
<text x="600" y="160" font-family="sans-serif" font-size="11" fill="#888780">Revenue · Jun 2026</text>
<line x1="600" y1="172" x2="846" y2="172" stroke="#ECEAE4" stroke-width="0.5"/>
<rect x="615" y="219" width="24" height="45" rx="2" fill="#D3D1C7" stroke="none"/>
<rect x="647" y="206" width="24" height="58" rx="2" fill="#D3D1C7" stroke="none"/>
<rect x="679" y="224" width="24" height="40" rx="2" fill="#D3D1C7" stroke="none"/>
<rect x="711" y="192" width="24" height="72" rx="2" fill="#D3D1C7" stroke="none"/>
<rect x="743" y="209" width="24" height="55" rx="2" fill="#D3D1C7" stroke="none"/>
<rect x="775" y="184" width="24" height="80" rx="2" fill="#D3D1C7" stroke="none"/>
<rect x="807" y="202" width="24" height="62" rx="2" fill="#B4B2A9" stroke="none"/>
<text x="627" y="274" font-family="sans-serif" font-size="9" fill="#888780" text-anchor="middle">D</text>
<text x="659" y="274" font-family="sans-serif" font-size="9" fill="#888780" text-anchor="middle">F</text>
<text x="691" y="274" font-family="sans-serif" font-size="9" fill="#888780" text-anchor="middle">M</text>
<text x="723" y="274" font-family="sans-serif" font-size="9" fill="#888780" text-anchor="middle">A</text>
<text x="755" y="274" font-family="sans-serif" font-size="9" fill="#888780" text-anchor="middle">M</text>
<text x="787" y="274" font-family="sans-serif" font-size="9" fill="#888780" text-anchor="middle">J</text>
<text x="819" y="274" font-family="sans-serif" font-size="9" fill="#888780" text-anchor="middle">J</text>
<rect x="20" y="292" width="270" height="190" rx="6" fill="#FFFFFF" stroke="#D3D1C7" stroke-width="0.75"/>
<rect x="21" y="293" width="268" height="26" rx="5" fill="#F8F7F4" stroke="none"/>
<text x="30" y="306" font-family="sans-serif" font-size="10" fill="#888780" dominant-baseline="central">TOP CUSTOMERS  ·  Zoho CRM</text>
<line x1="20" y1="319" x2="290" y2="319" stroke="#ECEAE4" stroke-width="0.5"/>
<circle cx="40" cy="338" r="7" fill="#F8F7F4"/>
<circle cx="40" cy="338" r="7" fill="#E8E5DE" stroke="#D3D1C7" stroke-width="0.5"/>
<text x="40" y="338" font-family="sans-serif" font-size="9" fill="#888780" text-anchor="middle" dominant-baseline="central">1</text>
<rect x="55" y="333" width="110" height="10" rx="2" fill="#E8E5DE" stroke="none"/>
<rect x="218" y="333" width="60" height="10" rx="2" fill="#D3D1C7" stroke="none"/>
<circle cx="40" cy="374" r="7" fill="#F8F7F4"/>
<circle cx="40" cy="374" r="7" fill="#E8E5DE" stroke="#D3D1C7" stroke-width="0.5"/>
<text x="40" y="374" font-family="sans-serif" font-size="9" fill="#888780" text-anchor="middle" dominant-baseline="central">2</text>
<rect x="55" y="369" width="95" height="10" rx="2" fill="#E8E5DE" stroke="none"/>
<rect x="226" y="369" width="52" height="10" rx="2" fill="#D3D1C7" stroke="none"/>
<circle cx="40" cy="410" r="7" fill="#F8F7F4"/>
<circle cx="40" cy="410" r="7" fill="#E8E5DE" stroke="#D3D1C7" stroke-width="0.5"/>
<text x="40" y="410" font-family="sans-serif" font-size="9" fill="#888780" text-anchor="middle" dominant-baseline="central">3</text>
<rect x="55" y="405" width="115" height="10" rx="2" fill="#E8E5DE" stroke="none"/>
<rect x="234" y="405" width="44" height="10" rx="2" fill="#D3D1C7" stroke="none"/>
<circle cx="40" cy="446" r="7" fill="#F8F7F4"/>
<circle cx="40" cy="446" r="7" fill="#E8E5DE" stroke="#D3D1C7" stroke-width="0.5"/>
<text x="40" y="446" font-family="sans-serif" font-size="9" fill="#888780" text-anchor="middle" dominant-baseline="central">4</text>
<rect x="55" y="441" width="80" height="10" rx="2" fill="#E8E5DE" stroke="none"/>
<rect x="242" y="441" width="36" height="10" rx="2" fill="#D3D1C7" stroke="none"/>
<rect x="304" y="292" width="270" height="190" rx="6" fill="#FFFFFF" stroke="#D3D1C7" stroke-width="0.75"/>
<rect x="305" y="293" width="268" height="26" rx="5" fill="#F8F7F4" stroke="none"/>
<text x="314" y="306" font-family="sans-serif" font-size="10" fill="#888780" dominant-baseline="central">SHIPMENTS  ·  AfterShip</text>
<line x1="304" y1="319" x2="574" y2="319" stroke="#ECEAE4" stroke-width="0.5"/>
<text x="316" y="342" font-family="sans-serif" font-size="22" fill="#2C2C2A" font-weight="500">27</text>
<text x="316" y="364" font-family="sans-serif" font-size="11" fill="#888780">Active shipments</text>
<line x1="316" y1="376" x2="562" y2="376" stroke="#ECEAE4" stroke-width="0.5"/>
<rect x="316" y="384" width="90" height="18" rx="9" fill="#E8E5DE" stroke="#D3D1C7" stroke-width="0.5"/>
<circle cx="326" cy="393" r="3" fill="#BA7517"/>
<text x="336" y="393" font-family="sans-serif" font-size="10" fill="#2C2C2A" dominant-baseline="central">In transit</text>
<rect x="414" y="384" width="84" height="18" rx="9" fill="#E8E5DE" stroke="#D3D1C7" stroke-width="0.5"/>
<circle cx="424" cy="393" r="3" fill="#1D9E75"/>
<text x="434" y="393" font-family="sans-serif" font-size="10" fill="#2C2C2A" dominant-baseline="central">Delivered</text>
<rect x="506" y="384" width="84" height="18" rx="9" fill="#E8E5DE" stroke="#D3D1C7" stroke-width="0.5"/>
<circle cx="516" cy="393" r="3" fill="#A32D2D"/>
<text x="526" y="393" font-family="sans-serif" font-size="10" fill="#2C2C2A" dominant-baseline="central">Exception</text>
<rect x="316" y="412" width="150" height="10" rx="2" fill="#E8E5DE" stroke="none"/>
<circle cx="556" cy="417" r="4" fill="#BA7517"/>
<rect x="316" y="434" width="160" height="10" rx="2" fill="#E8E5DE" stroke="none"/>
<circle cx="556" cy="439" r="4" fill="#1D9E75"/>
<rect x="316" y="456" width="140" height="10" rx="2" fill="#E8E5DE" stroke="none"/>
<circle cx="556" cy="461" r="4" fill="#A32D2D"/>
<rect x="588" y="292" width="270" height="190" rx="6" fill="#FFFFFF" stroke="#D3D1C7" stroke-width="0.75"/>
<rect x="589" y="293" width="268" height="26" rx="5" fill="#F8F7F4" stroke="none"/>
<text x="598" y="306" font-family="sans-serif" font-size="10" fill="#888780" dominant-baseline="central">EMAIL  ·  Klaviyo</text>
<line x1="588" y1="319" x2="858" y2="319" stroke="#ECEAE4" stroke-width="0.5"/>
<text x="600" y="342" font-family="sans-serif" font-size="22" fill="#2C2C2A" font-weight="500">34.2%</text>
<text x="600" y="364" font-family="sans-serif" font-size="11" fill="#888780">Open rate · last 30 days</text>
<line x1="600" y1="376" x2="846" y2="376" stroke="#ECEAE4" stroke-width="0.5"/>
<rect x="600" y="384" width="78" height="42" rx="4" fill="#E8E5DE" stroke="#D3D1C7" stroke-width="0.5"/>
<text x="639" y="395" font-family="sans-serif" font-size="9" fill="#888780" text-anchor="middle" dominant-baseline="central">Click rate</text>
<text x="639" y="414" font-family="sans-serif" font-size="13" fill="#2C2C2A" font-weight="500" text-anchor="middle" dominant-baseline="central">8.7%</text>
<rect x="686" y="384" width="78" height="42" rx="4" fill="#E8E5DE" stroke="#D3D1C7" stroke-width="0.5"/>
<text x="725" y="395" font-family="sans-serif" font-size="9" fill="#888780" text-anchor="middle" dominant-baseline="central">Unsubs</text>
<text x="725" y="414" font-family="sans-serif" font-size="13" fill="#2C2C2A" font-weight="500" text-anchor="middle" dominant-baseline="central">0.3%</text>
<rect x="772" y="384" width="78" height="42" rx="4" fill="#E8E5DE" stroke="#D3D1C7" stroke-width="0.5"/>
<text x="811" y="395" font-family="sans-serif" font-size="9" fill="#888780" text-anchor="middle" dominant-baseline="central">Active</text>
<text x="811" y="414" font-family="sans-serif" font-size="13" fill="#2C2C2A" font-weight="500" text-anchor="middle" dominant-baseline="central">3 camp.</text>
<rect x="600" y="437" width="180" height="10" rx="2" fill="#E8E5DE" stroke="none"/>
<rect x="808" y="437" width="38" height="10" rx="2" fill="#D3D1C7" stroke="none"/>
<rect x="600" y="459" width="165" height="10" rx="2" fill="#E8E5DE" stroke="none"/>
<rect x="814" y="459" width="32" height="10" rx="2" fill="#D3D1C7" stroke="none"/>
</svg>