<svg xmlns="http://www.w3.org/2000/svg" viewBox="0 0 880 486" width="100%" role="img">
<title>Manufacturer List View Wireframe — Evolvée Radiance</title>
<desc>Greyscale wireframe of the manufacturer contact list with search, filter, and data table showing name, contact, email, phone, status, and action controls.</desc>
<rect x="0" y="0" width="880" height="486" rx="0" fill="#F2EFE8" stroke="none"/>
<rect x="0" y="0" width="880" height="44" rx="0" fill="#2C2C2A" stroke="none"/>
<text x="24" y="22" font-family="sans-serif" font-size="13" fill="#FFFFFF" font-weight="500" dominant-baseline="central">Evolvée Radiance</text>
<text x="200" y="22" font-family="sans-serif" font-size="11" fill="rgba(255,255,255,0.5)" dominant-baseline="central">Dashboard</text>
<text x="295" y="22" font-family="sans-serif" font-size="11" fill="#FFFFFF" dominant-baseline="central">Manufacturers</text>
<text x="405" y="22" font-family="sans-serif" font-size="11" fill="rgba(255,255,255,0.5)" dominant-baseline="central">Orders</text>
<text x="480" y="22" font-family="sans-serif" font-size="11" fill="rgba(255,255,255,0.5)" dominant-baseline="central">Inventory</text>
<text x="562" y="22" font-family="sans-serif" font-size="11" fill="rgba(255,255,255,0.5)" dominant-baseline="central">Financials</text>
<circle cx="852" cy="22" r="13" fill="#3C3489" opacity="0.85"/>
<text x="852" y="22" font-family="sans-serif" font-size="10" fill="#FFFFFF" font-weight="500" text-anchor="middle" dominant-baseline="central">SM</text>
<rect x="0" y="44" width="880" height="36" rx="0" fill="#F2EFE8" stroke="none"/>
<text x="24" y="62" font-family="sans-serif" font-size="17" fill="#2C2C2A" font-weight="500" dominant-baseline="central">Manufacturers</text>
<rect x="0" y="80" width="880" height="406" rx="0" fill="#F2EFE8" stroke="none"/>
<rect x="720" y="54" width="140" height="24" rx="4" fill="#2C2C2A" stroke="none"/>
<text x="790" y="66" font-family="sans-serif" font-size="11" fill="#FFFFFF" font-weight="500" text-anchor="middle" dominant-baseline="central">+ Add Manufacturer</text>
<rect x="20" y="90" width="440" height="32" rx="4" fill="#FFFFFF" stroke="#D3D1C7" stroke-width="0.75"/>
<text x="44" y="106" font-family="sans-serif" font-size="12" fill="#888780" dominant-baseline="central">Search manufacturers…</text>
<text x="30" y="106" font-family="sans-serif" font-size="14" fill="#888780" dominant-baseline="central">⌕</text>
<rect x="480" y="90" width="74" height="32" rx="4" fill="#FFFFFF" stroke="#D3D1C7" stroke-width="0.75"/>
<text x="517" y="106" font-family="sans-serif" font-size="11" fill="#2C2C2A" text-anchor="middle" dominant-baseline="central">Status ▾</text>
<rect x="570" y="90" width="74" height="32" rx="4" fill="#FFFFFF" stroke="#D3D1C7" stroke-width="0.75"/>
<text x="607" y="106" font-family="sans-serif" font-size="11" fill="#2C2C2A" text-anchor="middle" dominant-baseline="central">Region ▾</text>
<rect x="652" y="90" width="95" height="32" rx="4" fill="#FFFFFF" stroke="#D3D1C7" stroke-width="0.75"/>
<text x="699" y="106" font-family="sans-serif" font-size="11" fill="#2C2C2A" text-anchor="middle" dominant-baseline="central">Lead time ▾</text>
<rect x="20" y="132" width="840" height="330" rx="6" fill="#FFFFFF" stroke="#D3D1C7" stroke-width="0.75"/>
<rect x="20" y="132" width="840" height="32" rx="0" fill="#F8F7F4" stroke="none"/>
<rect x="20" y="132" width="840" height="32" rx="6" fill="#F8F7F4" stroke="none"/>
<text x="48" y="148" font-family="sans-serif" font-size="10" fill="#888780" font-weight="500" dominant-baseline="central">MANUFACTURER</text>
<text x="260" y="148" font-family="sans-serif" font-size="10" fill="#888780" font-weight="500" dominant-baseline="central">CONTACT</text>
<text x="380" y="148" font-family="sans-serif" font-size="10" fill="#888780" font-weight="500" dominant-baseline="central">EMAIL</text>
<text x="490" y="148" font-family="sans-serif" font-size="10" fill="#888780" font-weight="500" dominant-baseline="central">PHONE</text>
<text x="630" y="148" font-family="sans-serif" font-size="10" fill="#888780" font-weight="500" dominant-baseline="central">STATUS</text>
<text x="720" y="148" font-family="sans-serif" font-size="10" fill="#888780" font-weight="500" dominant-baseline="central">ACTIONS</text>
<line x1="20" y1="164" x2="860" y2="164" stroke="#D3D1C7" stroke-width="0.75"/>
<rect x="20" y="164" width="840" height="44" rx="0" fill="#FAFAF8" stroke="none"/>
<line x1="20" y1="208" x2="860" y2="208" stroke="#ECEAE4" stroke-width="0.5"/>
<text x="48" y="186" font-family="sans-serif" font-size="12" fill="#2C2C2A" font-weight="500" dominant-baseline="central">GlowLab Beauty</text>
<text x="260" y="186" font-family="sans-serif" font-size="11" fill="#2C2C2A" dominant-baseline="central">Lisa Huang</text>
<text x="380" y="186" font-family="sans-serif" font-size="11" fill="#888780" dominant-baseline="central">lisa@glowlab.com</text>
<text x="490" y="186" font-family="sans-serif" font-size="11" fill="#888780" dominant-baseline="central">+1 415 555-0192</text>
<rect x="630" y="175" width="62" height="20" rx="10" fill="#E8E5DE" stroke="#D3D1C7" stroke-width="0.5"/>
<circle cx="640" cy="185" r="3" fill="#1D9E75"/>
<text x="646" y="185" font-family="sans-serif" font-size="10" fill="#2C2C2A" dominant-baseline="central">Active</text>
<rect x="720" y="175" width="22" height="20" rx="4" fill="#E8E5DE" stroke="#D3D1C7" stroke-width="0.5"/>
<text x="731" y="185" font-family="sans-serif" font-size="12" fill="#888780" text-anchor="middle" dominant-baseline="central">✎</text>
<rect x="748" y="175" width="22" height="20" rx="4" fill="#E8E5DE" stroke="#D3D1C7" stroke-width="0.5"/>
<text x="759" y="185" font-family="sans-serif" font-size="12" fill="#888780" text-anchor="middle" dominant-baseline="central">⋯</text>
<rect x="20" y="208" width="840" height="44" rx="0" fill="#FFFFFF" stroke="none"/>
<line x1="20" y1="252" x2="860" y2="252" stroke="#ECEAE4" stroke-width="0.5"/>
<text x="48" y="230" font-family="sans-serif" font-size="12" fill="#2C2C2A" font-weight="500" dominant-baseline="central">NaturSkin Co.</text>
<text x="260" y="230" font-family="sans-serif" font-size="11" fill="#2C2C2A" dominant-baseline="central">Marco Reyes</text>
<text x="380" y="230" font-family="sans-serif" font-size="11" fill="#888780" dominant-baseline="central">marco@naturskin.com</text>
<text x="490" y="230" font-family="sans-serif" font-size="11" fill="#888780" dominant-baseline="central">+1 323 555-0847</text>
<rect x="630" y="219" width="62" height="20" rx="10" fill="#E8E5DE" stroke="#D3D1C7" stroke-width="0.5"/>
<circle cx="640" cy="229" r="3" fill="#1D9E75"/>
<text x="646" y="229" font-family="sans-serif" font-size="10" fill="#2C2C2A" dominant-baseline="central">Active</text>
<rect x="720" y="219" width="22" height="20" rx="4" fill="#E8E5DE" stroke="#D3D1C7" stroke-width="0.5"/>
<text x="731" y="229" font-family="sans-serif" font-size="12" fill="#888780" text-anchor="middle" dominant-baseline="central">✎</text>
<rect x="748" y="219" width="22" height="20" rx="4" fill="#E8E5DE" stroke="#D3D1C7" stroke-width="0.5"/>
<text x="759" y="229" font-family="sans-serif" font-size="12" fill="#888780" text-anchor="middle" dominant-baseline="central">⋯</text>
<rect x="20" y="252" width="840" height="44" rx="0" fill="#FAFAF8" stroke="none"/>
<line x1="20" y1="296" x2="860" y2="296" stroke="#ECEAE4" stroke-width="0.5"/>
<text x="48" y="274" font-family="sans-serif" font-size="12" fill="#2C2C2A" font-weight="500" dominant-baseline="central">PureEssence Labs</text>
<text x="260" y="274" font-family="sans-serif" font-size="11" fill="#2C2C2A" dominant-baseline="central">Aisha Patel</text>
<text x="380" y="274" font-family="sans-serif" font-size="11" fill="#888780" dominant-baseline="central">aisha@pureessence.co</text>
<text x="490" y="274" font-family="sans-serif" font-size="11" fill="#888780" dominant-baseline="central">+44 20 7946-0301</text>
<rect x="630" y="263" width="62" height="20" rx="10" fill="#E8E5DE" stroke="#D3D1C7" stroke-width="0.5"/>
<circle cx="640" cy="273" r="3" fill="#BA7517"/>
<text x="646" y="273" font-family="sans-serif" font-size="10" fill="#2C2C2A" dominant-baseline="central">Review</text>
<rect x="720" y="263" width="22" height="20" rx="4" fill="#E8E5DE" stroke="#D3D1C7" stroke-width="0.5"/>
<text x="731" y="273" font-family="sans-serif" font-size="12" fill="#888780" text-anchor="middle" dominant-baseline="central">✎</text>
<rect x="748" y="263" width="22" height="20" rx="4" fill="#E8E5DE" stroke="#D3D1C7" stroke-width="0.5"/>
<text x="759" y="273" font-family="sans-serif" font-size="12" fill="#888780" text-anchor="middle" dominant-baseline="central">⋯</text>
<rect x="20" y="296" width="840" height="44" rx="0" fill="#FFFFFF" stroke="none"/>
<line x1="20" y1="340" x2="860" y2="340" stroke="#ECEAE4" stroke-width="0.5"/>
<text x="48" y="318" font-family="sans-serif" font-size="12" fill="#2C2C2A" font-weight="500" dominant-baseline="central">Botanica Inc.</text>
<text x="260" y="318" font-family="sans-serif" font-size="11" fill="#2C2C2A" dominant-baseline="central">Tom Wells</text>
<text x="380" y="318" font-family="sans-serif" font-size="11" fill="#888780" dominant-baseline="central">tom@botanica.co</text>
<text x="490" y="318" font-family="sans-serif" font-size="11" fill="#888780" dominant-baseline="central">+1 212 555-0143</text>
<rect x="630" y="307" width="62" height="20" rx="10" fill="#E8E5DE" stroke="#D3D1C7" stroke-width="0.5"/>
<circle cx="640" cy="317" r="3" fill="#1D9E75"/>
<text x="646" y="317" font-family="sans-serif" font-size="10" fill="#2C2C2A" dominant-baseline="central">Active</text>
<rect x="720" y="307" width="22" height="20" rx="4" fill="#E8E5DE" stroke="#D3D1C7" stroke-width="0.5"/>
<text x="731" y="317" font-family="sans-serif" font-size="12" fill="#888780" text-anchor="middle" dominant-baseline="central">✎</text>
<rect x="748" y="307" width="22" height="20" rx="4" fill="#E8E5DE" stroke="#D3D1C7" stroke-width="0.5"/>
<text x="759" y="317" font-family="sans-serif" font-size="12" fill="#888780" text-anchor="middle" dominant-baseline="central">⋯</text>
<rect x="20" y="340" width="840" height="44" rx="0" fill="#FAFAF8" stroke="none"/>
<line x1="20" y1="384" x2="860" y2="384" stroke="#ECEAE4" stroke-width="0.5"/>
<text x="48" y="362" font-family="sans-serif" font-size="12" fill="#2C2C2A" font-weight="500" dominant-baseline="central">LuxForm Group</text>
<text x="260" y="362" font-family="sans-serif" font-size="11" fill="#2C2C2A" dominant-baseline="central">Sun Li</text>
<text x="380" y="362" font-family="sans-serif" font-size="11" fill="#888780" dominant-baseline="central">sun.li@luxform.com</text>
<text x="490" y="362" font-family="sans-serif" font-size="11" fill="#888780" dominant-baseline="central">+1 650 555-0218</text>
<rect x="630" y="351" width="76" height="20" rx="10" fill="#E8E5DE" stroke="#D3D1C7" stroke-width="0.5"/>
<circle cx="640" cy="361" r="3" fill="#A32D2D"/>
<text x="646" y="361" font-family="sans-serif" font-size="10" fill="#2C2C2A" dominant-baseline="central">Inactive</text>
<rect x="720" y="351" width="22" height="20" rx="4" fill="#E8E5DE" stroke="#D3D1C7" stroke-width="0.5"/>
<text x="731" y="361" font-family="sans-serif" font-size="12" fill="#888780" text-anchor="middle" dominant-baseline="central">✎</text>
<rect x="748" y="351" width="22" height="20" rx="4" fill="#E8E5DE" stroke="#D3D1C7" stroke-width="0.5"/>
<text x="759" y="361" font-family="sans-serif" font-size="12" fill="#888780" text-anchor="middle" dominant-baseline="central">⋯</text>
<text x="20" y="396" font-family="sans-serif" font-size="11" fill="#888780" dominant-baseline="central">Showing 5 of 12</text>
<rect x="750" y="388" width="22" height="22" rx="4" fill="#2C2C2A" stroke="#D3D1C7" stroke-width="0.5"/>
<text x="761" y="399" font-family="sans-serif" font-size="11" fill="#FFFFFF" text-anchor="middle" dominant-baseline="central">1</text>
<rect x="778" y="388" width="22" height="22" rx="4" fill="#E8E5DE" stroke="#D3D1C7" stroke-width="0.5"/>
<text x="789" y="399" font-family="sans-serif" font-size="11" fill="#888780" text-anchor="middle" dominant-baseline="central">2</text>
<rect x="806" y="388" width="22" height="22" rx="4" fill="#E8E5DE" stroke="#D3D1C7" stroke-width="0.5"/>
<text x="817" y="399" font-family="sans-serif" font-size="11" fill="#888780" text-anchor="middle" dominant-baseline="central">3</text>
<rect x="834" y="388" width="22" height="22" rx="4" fill="#E8E5DE" stroke="#D3D1C7" stroke-width="0.5"/>
<text x="845" y="399" font-family="sans-serif" font-size="11" fill="#888780" text-anchor="middle" dominant-baseline="central">→</text>
</svg>