<svg viewBox="0 0 1200 900" xmlns="http://www.w3.org/2000/svg" font-family="Segoe UI, Arial, sans-serif">
  <!-- page background -->
  <rect x="0" y="0" width="1200" height="900" fill="#ffffff"/>

  <!-- app frame -->
  <rect x="12" y="12" width="1176" height="856" rx="10" fill="#ffffff" stroke="#cccccc" stroke-width="1.5"/>

  <!-- top nav bar -->
  <path d="M 12 62 L 12 22 Q 12 12 22 12 L 1178 12 Q 1188 12 1188 22 L 1188 62 Z" fill="#2e2e2e"/>
  <text x="32" y="43" fill="#ffffff" font-size="15.5" font-weight="700">Evolvée Radiance · Operations Hub</text>
  <!-- nav links -->
  <text x="832" y="43" fill="#b8b8b8" font-size="13">Dashboard</text>
  <text x="922" y="43" fill="#ffffff" font-size="13" font-weight="700">Manufacturer Tool</text>
  <rect x="922" y="49" width="120" height="2.5" fill="#ffffff"/>
  <text x="1062" y="43" fill="#b8b8b8" font-size="13">User Management</text>

  <!-- page header -->
  <polygon points="32,96 40,80 48,96" fill="#707070"/>
  <text x="40" y="94" fill="#ffffff" font-size="10" font-weight="700" text-anchor="middle">!</text>
  <text x="58" y="96" fill="#2f2f2f" font-size="19" font-weight="700">Manufacturer &amp; Reorder Management</text>
  <rect x="1010" y="78" width="156" height="30" rx="6" fill="#ececec" stroke="#b9b9b9"/>
  <text x="1088" y="98" fill="#555555" font-size="12.5" text-anchor="middle">+ Add Manufacturer</text>

  <!-- reorder alerts banner -->
  <rect x="24" y="122" width="1142" height="48" rx="7" fill="#f3f3f3" stroke="#dcdcdc"/>
  <rect x="24" y="122" width="5" height="48" fill="#6f6f6f"/>
  <text x="44" y="142" fill="#333333" font-size="12.5" font-weight="700">Open Reorder Alerts (3)</text>
  <text x="44" y="160" fill="#6c6c6c" font-size="11">VITC-SERUM-30 — 18 ≤ 50  ·  HA-MIST-100 — 9 ≤ 25  ·  CLAY-MASK-50 — 4 ≤ 30</text>
  <text x="1146" y="151" fill="#444444" font-size="11.5" text-anchor="end">View all →</text>

  <!-- ===================== LEFT PANEL: Manufacturers list ===================== -->
  <rect x="24" y="184" width="330" height="660" rx="8" fill="#ffffff" stroke="#d9d9d9"/>
  <text x="40" y="212" fill="#444444" font-size="13" font-weight="700">Manufacturers</text>
  <line x1="24" y1="224" x2="354" y2="224" stroke="#ededed"/>
  <!-- search -->
  <rect x="40" y="234" width="298" height="28" rx="6" fill="#fafafa" stroke="#dcdcdc"/>
  <text x="54" y="252" fill="#aaaaaa" font-size="11.5">Search manufacturers…</text>

  <!-- selected row -->
  <rect x="28" y="276" width="322" height="60" rx="4" fill="#ededed"/>
  <rect x="24" y="276" width="4" height="60" fill="#6f6f6f"/>
  <text x="44" y="304" fill="#2f2f2f" font-size="12.5" font-weight="700">Lumière Labs</text>
  <text x="44" y="322" fill="#8a8a8a" font-size="10.5">12 SKUs · 2 active runs</text>

  <text x="44" y="368" fill="#444444" font-size="12.5">Botanica Supply Co.</text>
  <text x="44" y="386" fill="#9a9a9a" font-size="10.5">8 SKUs · 1 active run</text>
  <line x1="40" y1="340" x2="338" y2="340" stroke="#f1f1f1"/>

  <text x="44" y="432" fill="#444444" font-size="12.5">PureFill Packaging</text>
  <text x="44" y="450" fill="#9a9a9a" font-size="10.5">5 SKUs · 0 active runs</text>
  <line x1="40" y1="404" x2="338" y2="404" stroke="#f1f1f1"/>

  <text x="44" y="496" fill="#444444" font-size="12.5">GlowChem Formulators</text>
  <text x="44" y="514" fill="#9a9a9a" font-size="10.5">9 SKUs · 3 active runs</text>
  <line x1="40" y1="468" x2="338" y2="468" stroke="#f1f1f1"/>

  <text x="44" y="560" fill="#444444" font-size="12.5">Aurora Bottling</text>
  <text x="44" y="578" fill="#9a9a9a" font-size="10.5">4 SKUs · 0 active runs</text>
  <line x1="40" y1="532" x2="338" y2="532" stroke="#f1f1f1"/>

  <!-- ===================== RIGHT PANEL: Detail ===================== -->
  <rect x="370" y="184" width="796" height="660" rx="8" fill="#ffffff" stroke="#d9d9d9"/>

  <!-- detail header -->
  <text x="388" y="216" fill="#2f2f2f" font-size="17" font-weight="700">Lumière Labs</text>
  <rect x="1086" y="198" width="64" height="28" rx="6" fill="#ececec" stroke="#bcbcbc"/>
  <text x="1118" y="217" fill="#555555" font-size="12" text-anchor="middle">Edit</text>
  <text x="388" y="236" fill="#777777" font-size="11">Primary POC: Marie Chen  ·  marie@lumierelabs.co  ·  +1 415 555 0192</text>
  <line x1="380" y1="250" x2="1156" y2="250" stroke="#ececec"/>

  <!-- Card A: Contacts -->
  <text x="388" y="280" fill="#555555" font-size="12" font-weight="700">Contacts (Points of Contact)</text>
  <text x="388" y="300" fill="#9a9a9a" font-size="10">NAME</text>
  <text x="560" y="300" fill="#9a9a9a" font-size="10">ROLE</text>
  <text x="720" y="300" fill="#9a9a9a" font-size="10">EMAIL</text>
  <text x="980" y="300" fill="#9a9a9a" font-size="10">PHONE</text>
  <line x1="388" y1="308" x2="1148" y2="308" stroke="#f0f0f0"/>
  <text x="388" y="326" fill="#555555" font-size="11">Marie Chen</text>
  <text x="560" y="326" fill="#555555" font-size="11">Account Manager</text>
  <text x="720" y="326" fill="#555555" font-size="11">marie@lumierelabs.co</text>
  <text x="980" y="326" fill="#555555" font-size="11">+1 415 555 0192</text>
  <line x1="388" y1="334" x2="1148" y2="334" stroke="#f6f6f6"/>
  <text x="388" y="350" fill="#555555" font-size="11">Dev Patel</text>
  <text x="560" y="350" fill="#555555" font-size="11">Production Lead</text>
  <text x="720" y="350" fill="#555555" font-size="11">dev@lumierelabs.co</text>
  <text x="980" y="350" fill="#555555" font-size="11">+1 415 555 0177</text>

  <!-- Card B: Assigned Products & Thresholds -->
  <text x="388" y="384" fill="#555555" font-size="12" font-weight="700">Assigned Products &amp; Reorder Thresholds</text>
  <text x="388" y="404" fill="#9a9a9a" font-size="10">SKU</text>
  <text x="560" y="404" fill="#9a9a9a" font-size="10">PRODUCT</text>
  <text x="800" y="404" fill="#9a9a9a" font-size="10">STOCK</text>
  <text x="890" y="404" fill="#9a9a9a" font-size="10">THRESHOLD</text>
  <text x="1010" y="404" fill="#9a9a9a" font-size="10">STATUS</text>
  <line x1="388" y1="412" x2="1148" y2="412" stroke="#f0f0f0"/>
  <!-- row 1 LOW -->
  <text x="388" y="430" fill="#555555" font-size="11">VITC-SERUM-30</text>
  <text x="560" y="430" fill="#555555" font-size="11">Vitamin C Serum 30ml</text>
  <text x="800" y="430" fill="#555555" font-size="11">18</text>
  <text x="890" y="430" fill="#555555" font-size="11">50</text>
  <rect x="1010" y="418" width="44" height="17" rx="8.5" fill="#cfcfcf"/>
  <text x="1032" y="430" fill="#333333" font-size="9.5" font-weight="700" text-anchor="middle">LOW</text>
  <line x1="388" y1="438" x2="1148" y2="438" stroke="#f6f6f6"/>
  <!-- row 2 OK -->
  <text x="388" y="456" fill="#555555" font-size="11">HYA-CREAM-50</text>
  <text x="560" y="456" fill="#555555" font-size="11">Hydra Cream 50ml</text>
  <text x="800" y="456" fill="#555555" font-size="11">120</text>
  <text x="890" y="456" fill="#555555" font-size="11">40</text>
  <rect x="1010" y="444" width="44" height="17" rx="8.5" fill="#e8e8e8"/>
  <text x="1032" y="456" fill="#777777" font-size="9.5" text-anchor="middle">OK</text>
  <line x1="388" y1="464" x2="1148" y2="464" stroke="#f6f6f6"/>
  <!-- row 3 OK -->
  <text x="388" y="482" fill="#555555" font-size="11">RETIN-OIL-15</text>
  <text x="560" y="482" fill="#555555" font-size="11">Retinol Oil 15ml</text>
  <text x="800" y="482" fill="#555555" font-size="11">64</text>
  <text x="890" y="482" fill="#555555" font-size="11">30</text>
  <rect x="1010" y="470" width="44" height="17" rx="8.5" fill="#e8e8e8"/>
  <text x="1032" y="482" fill="#777777" font-size="9.5" text-anchor="middle">OK</text>

  <!-- Card C: Reorder History -->
  <text x="388" y="516" fill="#555555" font-size="12" font-weight="700">Reorder History</text>
  <text x="388" y="536" fill="#9a9a9a" font-size="10">DATE</text>
  <text x="500" y="536" fill="#9a9a9a" font-size="10">SKU</text>
  <text x="680" y="536" fill="#9a9a9a" font-size="10">QTY</text>
  <text x="760" y="536" fill="#9a9a9a" font-size="10">REF</text>
  <text x="1010" y="536" fill="#9a9a9a" font-size="10">STATUS</text>
  <line x1="388" y1="544" x2="1148" y2="544" stroke="#f0f0f0"/>
  <text x="388" y="562" fill="#555555" font-size="11">2026-05-22</text>
  <text x="500" y="562" fill="#555555" font-size="11">VITC-SERUM-30</text>
  <text x="680" y="562" fill="#555555" font-size="11">500</text>
  <text x="760" y="562" fill="#555555" font-size="11">PO-1042</text>
  <rect x="1010" y="550" width="66" height="17" rx="8.5" fill="#e3e3e3"/>
  <text x="1043" y="562" fill="#666666" font-size="9.5" text-anchor="middle">Received</text>
  <line x1="388" y1="570" x2="1148" y2="570" stroke="#f6f6f6"/>
  <text x="388" y="588" fill="#555555" font-size="11">2026-04-30</text>
  <text x="500" y="588" fill="#555555" font-size="11">HYA-CREAM-50</text>
  <text x="680" y="588" fill="#555555" font-size="11">300</text>
  <text x="760" y="588" fill="#555555" font-size="11">PO-1039</text>
  <rect x="1010" y="576" width="66" height="17" rx="8.5" fill="#e3e3e3"/>
  <text x="1043" y="588" fill="#666666" font-size="9.5" text-anchor="middle">Received</text>

  <!-- Card D: Communication Log -->
  <text x="388" y="622" fill="#555555" font-size="12" font-weight="700">Communication Log</text>
  <line x1="388" y1="632" x2="1148" y2="632" stroke="#f0f0f0"/>
  <text x="388" y="652" fill="#8a8a8a" font-size="10.5">2026-06-03 · Marie Chen</text>
  <text x="388" y="668" fill="#555555" font-size="11">Confirmed lead time of 3 weeks for the next serum reorder.</text>
  <text x="388" y="690" fill="#8a8a8a" font-size="10.5">2026-05-19 · Dev Patel</text>
  <text x="388" y="706" fill="#555555" font-size="11">Requested updated certificate of analysis for the retinol batch.</text>

  <!-- Card E: Production Status -->
  <text x="388" y="740" fill="#555555" font-size="12" font-weight="700">Production Status</text>
  <!-- run 1 -->
  <rect x="388" y="750" width="244" height="52" rx="8" fill="#f7f7f7" stroke="#e2e2e2"/>
  <text x="404" y="772" fill="#444444" font-size="11.5" font-weight="700">PO-1042 · 500u</text>
  <rect x="404" y="780" width="86" height="16" rx="8" fill="#e0e0e0"/>
  <text x="447" y="791" fill="#555555" font-size="9" text-anchor="middle">In Production</text>
  <!-- run 2 -->
  <rect x="644" y="750" width="244" height="52" rx="8" fill="#f7f7f7" stroke="#e2e2e2"/>
  <text x="660" y="772" fill="#444444" font-size="11.5" font-weight="700">PO-1039 · 300u</text>
  <rect x="660" y="780" width="60" height="16" rx="8" fill="#e0e0e0"/>
  <text x="690" y="791" fill="#555555" font-size="9" text-anchor="middle">Shipped</text>
  <!-- run 3 -->
  <rect x="900" y="750" width="248" height="52" rx="8" fill="#f7f7f7" stroke="#e2e2e2"/>
  <text x="916" y="772" fill="#444444" font-size="11.5" font-weight="700">PO-1051 · 250u</text>
  <rect x="916" y="780" width="58" height="16" rx="8" fill="#e0e0e0"/>
  <text x="945" y="791" fill="#555555" font-size="9" text-anchor="middle">Ordered</text>

  <!-- footer caption -->
  <text x="24" y="888" fill="#aaaaaa" font-size="10">Wireframe · Manufacturer POC &amp; Reorder Management Tool (V1) · greyscale, placeholder data</text>
</svg>
